<?xml version="1.0" encoding="UTF-8"?>
<!DOCTYPE svg PUBLIC "-//W3C//DTD SVG 1.1//EN" "http://www.w3.org/Graphics/SVG/1.1/DTD/svg11.dtd">
<!-- Creator: CorelDRAW 2020 (64 Bit) -->
<svg xmlns="http://www.w3.org/2000/svg" xml:space="preserve" width="115.832mm" height="85.7756mm" version="1.1" style="shape-rendering:geometricPrecision; text-rendering:geometricPrecision; image-rendering:optimizeQuality; fill-rule:evenodd; clip-rule:evenodd"
viewBox="0 0 1271.65 941.67"
 xmlns:xlink="http://www.w3.org/1999/xlink"
 xmlns:xodm="http://www.corel.com/coreldraw/odm/2003">
 <defs>
  <style type="text/css">
   <![CDATA[
    .fil0 {fill:#CB2E3F;fill-rule:nonzero;fill-opacity:0.501961}
   ]]>
  </style>
 </defs>
 <g id="Camada_x0020_1">
  <metadata id="CorelCorpID_0Corel-Layer"/>
  <g id="_2502027851776">
   <path class="fil0" d="M673.94 482.42c-8.34,11.04 -12.82,21.76 -13.47,32.15l5.74 4.33 -31.72 42.02c6.35,29.86 24.61,56.17 54.72,78.91 18.4,13.89 37.23,22.94 56.44,27.23 20.89,4.74 40.71,3.63 59.45,-3.3 20.57,-7.66 38.9,-22.2 55.13,-43.71 23.02,-30.5 31.72,-61 26.05,-91.55 -5.3,-29.06 -22.79,-54.8 -52.48,-77.21 -14.67,-11.08 -30.15,-19.31 -46.52,-24.76 -16.29,-5.46 -30.76,-7.76 -43.22,-6.97 -4.26,5.64 -8.72,13 -13.49,22.15 -4.77,9.15 -6.15,13.11 -7.35,18.97l30.39 16.07 13.17 9.45 10.28 11.52c7.28,13.61 4.67,12.79 5.98,15.89 1.29,3.05 -0.03,7.19 -3.07,20.96 0.89,0.58 15.55,5.83 16.48,6.53 11.34,8.56 14.86,23.05 7.84,32.34 -12.71,16.83 -45.96,18.15 -79.21,19.47 -7.84,-32.34 -15.69,-64.68 -2.98,-81.51 7.02,-9.29 21.91,-9.88 33.25,-1.32 10.28,7.76 12.24,15.84 11.02,28.14 42.35,-16.73 -54.62,-105.86 -92.42,-55.79z"/>
   <path class="fil0" d="M1146.69 361.21c-4.26,5.64 -6.54,11.1 -6.87,16.41l2.93 2.21 -16.19 21.45c3.24,15.24 12.56,28.67 27.93,40.27 9.39,7.09 19,11.71 28.8,13.9 10.66,2.42 20.78,1.85 30.34,-1.69 10.5,-3.91 19.85,-11.33 28.14,-22.31 11.75,-15.57 16.19,-31.14 13.29,-46.73 -2.71,-14.83 -11.63,-27.97 -26.78,-39.41 -7.49,-5.65 -15.39,-9.85 -23.74,-12.64 -8.31,-2.79 -15.7,-3.96 -22.06,-3.55 -2.17,2.88 -4.45,6.63 -6.89,11.31 -2.43,4.67 -3.14,6.69 -3.75,9.68l15.51 8.2 6.72 4.82 5.24 5.88c3.72,6.95 2.38,6.53 3.05,8.11 0.66,1.56 -0.01,3.67 -1.57,10.7 0.46,0.29 7.94,2.97 8.41,3.33 5.79,4.37 7.58,11.76 4,16.51 -6.48,8.59 -23.46,9.26 -40.43,9.94 -4,-16.51 -8.01,-33.01 -1.52,-41.6 3.58,-4.74 11.18,-5.04 16.97,-0.67 5.25,3.96 6.25,8.08 5.62,14.36 21.62,-8.54 -27.88,-54.03 -47.17,-28.47z"/>
   <path class="fil0" d="M932.52 644.54c-13.21,17.5 -20.31,34.48 -21.34,50.95l9.09 6.86 -50.26 66.58c10.06,47.31 38.99,89 86.71,125.03 29.16,22.01 59,36.34 89.43,43.14 33.1,7.5 64.5,5.76 94.2,-5.23 32.59,-12.14 61.63,-35.17 87.36,-69.25 36.48,-48.33 50.26,-96.66 41.27,-145.07 -8.4,-46.05 -36.12,-86.83 -83.16,-122.34 -23.25,-17.55 -47.77,-30.59 -73.71,-39.24 -25.81,-8.66 -48.74,-12.3 -68.49,-11.04 -6.75,8.94 -13.81,20.59 -21.38,35.1 -7.56,14.5 -9.75,20.78 -11.64,30.05l48.15 25.47 20.87 14.97 16.28 18.26c11.53,21.57 7.4,20.27 9.48,25.18 2.05,4.84 -0.04,11.38 -4.87,33.21 1.42,0.91 24.64,9.24 26.12,10.35 17.97,13.57 23.54,36.52 12.42,51.25 -20.13,26.67 -72.82,28.76 -125.52,30.85 -12.43,-51.25 -24.85,-102.49 -4.72,-129.16 11.12,-14.73 34.72,-15.66 52.69,-2.09 16.28,12.29 19.39,25.1 17.46,44.58 67.11,-26.51 -86.55,-167.74 -146.44,-88.4z"/>
   <path class="fil0" d="M906.97 131.9c-8.59,11.39 -13.22,22.44 -13.89,33.15l5.92 4.47 -32.71 43.32c6.55,30.79 25.37,57.92 56.43,81.36 18.97,14.32 38.39,23.65 58.19,28.07 21.54,4.88 41.97,3.75 61.3,-3.4 21.21,-7.9 40.11,-22.89 56.85,-45.07 23.74,-31.45 32.7,-62.9 26.86,-94.4 -5.47,-29.97 -23.5,-56.5 -54.11,-79.61 -15.13,-11.42 -31.09,-19.91 -47.96,-25.53 -16.79,-5.63 -31.72,-8.01 -44.57,-7.18 -4.39,5.82 -8.99,13.4 -13.91,22.84 -4.92,9.44 -6.35,13.52 -7.58,19.56l31.33 16.57 13.58 9.74 10.6 11.88c7.5,14.04 4.82,13.19 6.17,16.38 1.33,3.15 -0.03,7.41 -3.17,21.61 0.92,0.59 16.04,6.01 16.99,6.73 11.7,8.83 15.32,23.76 8.08,33.35 -13.1,17.35 -47.39,18.71 -81.68,20.07 -8.09,-33.35 -16.17,-66.7 -3.07,-84.05 7.23,-9.58 22.59,-10.19 34.29,-1.36 10.6,8 12.62,16.33 11.36,29.01 43.67,-17.25 -56.32,-109.15 -95.29,-57.52z"/>
   <path class="fil0" d="M410.14 99.86c-13.21,17.5 -20.31,34.48 -21.34,50.95l9.09 6.86 -50.26 66.58c10.06,47.31 38.99,89 86.71,125.03 29.16,22.01 59,36.34 89.43,43.14 33.1,7.5 64.5,5.76 94.2,-5.23 32.59,-12.14 61.63,-35.17 87.36,-69.25 36.48,-48.33 50.26,-96.66 41.27,-145.07 -8.4,-46.05 -36.12,-86.83 -83.16,-122.34 -23.25,-17.55 -47.77,-30.59 -73.71,-39.24 -25.81,-8.66 -48.74,-12.3 -68.49,-11.04 -6.75,8.94 -13.81,20.59 -21.38,35.1 -7.56,14.5 -9.75,20.78 -11.64,30.05l48.15 25.47 20.87 14.97 16.28 18.26c11.53,21.57 7.4,20.27 9.48,25.18 2.05,4.84 -0.04,11.38 -4.87,33.21 1.42,0.91 24.64,9.24 26.12,10.35 17.97,13.57 23.54,36.52 12.42,51.25 -20.13,26.67 -72.82,28.76 -125.52,30.85 -12.43,-51.25 -24.85,-102.49 -4.72,-129.16 11.12,-14.73 34.72,-15.66 52.69,-2.09 16.28,12.29 19.39,25.1 17.46,44.58 67.11,-26.51 -86.55,-167.74 -146.44,-88.4z"/>
   <path class="fil0" d="M309.81 427.24c-3.4,4.5 -5.23,8.87 -5.49,13.11l2.34 1.77 -12.93 17.13c2.59,12.17 10.03,22.9 22.31,32.17 7.5,5.66 15.18,9.35 23.01,11.1 8.52,1.93 16.6,1.48 24.24,-1.35 8.39,-3.12 15.86,-9.05 22.48,-17.82 9.39,-12.43 12.93,-24.87 10.62,-37.33 -2.16,-11.85 -9.29,-22.34 -21.4,-31.48 -5.98,-4.52 -12.29,-7.87 -18.97,-10.1 -6.64,-2.23 -12.54,-3.17 -17.62,-2.84 -1.74,2.3 -3.55,5.3 -5.5,9.03 -1.94,3.73 -2.51,5.35 -2.99,7.73l12.39 6.55 5.37 3.85 4.19 4.7c2.97,5.55 1.9,5.22 2.44,6.48 0.53,1.24 -0.01,2.93 -1.25,8.54 0.36,0.23 6.34,2.38 6.72,2.66 4.62,3.49 6.06,9.4 3.2,13.19 -5.18,6.86 -18.74,7.4 -32.3,7.94 -3.2,-13.19 -6.39,-26.37 -1.21,-33.23 2.86,-3.79 8.93,-4.03 13.56,-0.54 4.19,3.16 4.99,6.46 4.49,11.47 17.27,-6.82 -22.27,-43.16 -37.68,-22.74z"/>
   <path class="fil0" d="M62.51 640.83c-13.21,17.5 -20.31,34.48 -21.34,50.95l9.09 6.86 -50.26 66.58c10.06,47.31 38.99,89 86.71,125.03 29.16,22.01 59,36.34 89.43,43.14 33.1,7.5 64.5,5.76 94.2,-5.23 32.59,-12.14 61.63,-35.17 87.36,-69.25 36.48,-48.33 50.26,-96.66 41.27,-145.07 -8.4,-46.05 -36.12,-86.83 -83.16,-122.34 -23.25,-17.55 -47.77,-30.59 -73.71,-39.24 -25.81,-8.66 -48.74,-12.3 -68.49,-11.04 -6.75,8.94 -13.81,20.59 -21.38,35.1 -7.56,14.5 -9.75,20.78 -11.64,30.05l48.15 25.47 20.87 14.97 16.28 18.26c11.53,21.57 7.4,20.27 9.48,25.18 2.05,4.84 -0.04,11.38 -4.87,33.21 1.42,0.91 24.64,9.24 26.12,10.35 17.97,13.57 23.54,36.52 12.42,51.25 -20.13,26.67 -72.82,28.76 -125.52,30.85 -12.43,-51.25 -24.85,-102.49 -4.72,-129.16 11.12,-14.73 34.72,-15.66 52.69,-2.09 16.28,12.29 19.39,25.1 17.46,44.58 67.11,-26.51 -86.55,-167.74 -146.44,-88.4z"/>
   <path class="fil0" d="M990.48 435.12c-2.86,3.79 -4.4,7.47 -4.63,11.05l1.97 1.49 -10.9 14.43c2.18,10.26 8.45,19.29 18.8,27.1 6.32,4.77 12.79,7.88 19.39,9.35 7.18,1.63 13.98,1.25 20.42,-1.13 7.07,-2.63 13.36,-7.62 18.94,-15.01 7.91,-10.48 10.89,-20.95 8.95,-31.45 -1.82,-9.98 -7.83,-18.82 -18.03,-26.52 -5.04,-3.81 -10.36,-6.63 -15.98,-8.5 -5.59,-1.88 -10.57,-2.67 -14.85,-2.39 -1.46,1.94 -2.99,4.46 -4.64,7.61 -1.64,3.14 -2.11,4.5 -2.52,6.51l10.44 5.52 4.53 3.25 3.53 3.96c2.5,4.68 1.61,4.39 2.05,5.46 0.44,1.05 -0.01,2.47 -1.06,7.2 0.31,0.2 5.34,2 5.66,2.24 3.9,2.94 5.1,7.92 2.69,11.11 -4.36,5.78 -15.79,6.23 -27.21,6.69 -2.69,-11.11 -5.39,-22.22 -1.02,-28 2.41,-3.19 7.53,-3.39 11.42,-0.45 3.53,2.66 4.2,5.44 3.79,9.66 14.55,-5.75 -18.76,-36.36 -31.75,-19.16z"/>
   <path class="fil0" d="M474.64 666.04c-5.23,6.93 -8.05,13.66 -8.45,20.18l3.6 2.72 -19.91 26.38c3.99,18.74 15.45,35.26 34.35,49.53 11.55,8.72 23.37,14.4 35.43,17.09 13.11,2.97 25.55,2.28 37.32,-2.07 12.91,-4.81 24.42,-13.93 34.61,-27.43 14.45,-19.14 19.91,-38.29 16.35,-57.47 -3.33,-18.24 -14.31,-34.4 -32.94,-48.47 -9.21,-6.95 -18.93,-12.12 -29.2,-15.54 -10.22,-3.43 -19.31,-4.87 -27.13,-4.37 -2.67,3.54 -5.47,8.16 -8.47,13.91 -2.99,5.74 -3.86,8.23 -4.61,11.9l19.07 10.09 8.27 5.93 6.45 7.23c4.57,8.55 2.93,8.03 3.75,9.97 0.81,1.92 -0.02,4.51 -1.93,13.16 0.56,0.36 9.76,3.66 10.35,4.1 7.12,5.38 9.33,14.47 4.92,20.3 -7.98,10.56 -28.85,11.39 -49.72,12.22 -4.92,-20.3 -9.85,-40.6 -1.87,-51.17 4.4,-5.83 13.75,-6.2 20.87,-0.83 6.45,4.87 7.68,9.94 6.92,17.66 26.58,-10.5 -34.29,-66.45 -58.01,-35.02z"/>
   <path class="fil0" d="M565.19 852.96c-3.15,4.18 -4.85,8.23 -5.1,12.17l2.17 1.64 -12 15.9c2.4,11.3 9.31,21.25 20.71,29.86 6.96,5.26 14.09,8.68 21.35,10.3 7.9,1.79 15.4,1.37 22.49,-1.25 7.78,-2.9 14.72,-8.4 20.86,-16.54 8.71,-11.54 12,-23.08 9.86,-34.64 -2.01,-11 -8.62,-20.73 -19.86,-29.21 -5.55,-4.19 -11.41,-7.3 -17.6,-9.37 -6.16,-2.07 -11.64,-2.94 -16.35,-2.64 -1.61,2.14 -3.3,4.92 -5.11,8.38 -1.8,3.46 -2.33,4.96 -2.78,7.18l11.5 6.08 4.98 3.58 3.89 4.36c2.75,5.15 1.77,4.84 2.26,6.01 0.49,1.15 -0.01,2.72 -1.16,7.93 0.34,0.22 5.88,2.21 6.24,2.47 4.29,3.24 5.62,8.72 2.97,12.24 -4.81,6.37 -17.39,6.87 -29.97,7.37 -2.97,-12.24 -5.93,-24.47 -1.13,-30.84 2.65,-3.52 8.29,-3.74 12.58,-0.5 3.89,2.94 4.63,5.99 4.17,10.65 16.02,-6.33 -20.67,-40.05 -34.97,-21.11z"/>
  </g>
 </g>
</svg>
