<?xml version="1.0" encoding="UTF-8"?>
<!DOCTYPE svg PUBLIC "-//W3C//DTD SVG 1.1//EN" "http://www.w3.org/Graphics/SVG/1.1/DTD/svg11.dtd">
<!-- Creator: CorelDRAW 2020 (64 Bit) -->
<svg xmlns="http://www.w3.org/2000/svg" xml:space="preserve" width="38.2692mm" height="29.8899mm" version="1.1" style="shape-rendering:geometricPrecision; text-rendering:geometricPrecision; image-rendering:optimizeQuality; fill-rule:evenodd; clip-rule:evenodd"
viewBox="0 0 3826.92 2988.99"
 xmlns:xlink="http://www.w3.org/1999/xlink"
 xmlns:xodm="http://www.corel.com/coreldraw/odm/2003">
 <defs>
  <style type="text/css">
   <![CDATA[
    .fil0 {fill:white}
    .fil1 {fill:white;fill-rule:nonzero}
   ]]>
  </style>
 </defs>
 <g id="Camada_x0020_1">
  <metadata id="CorelCorpID_0Corel-Layer"/>
  <g id="_2538288181680">
   <g>
    <path class="fil0" d="M321.72 279.42l3183.48 0c176.95,0 321.72,144.77 321.72,321.72l0 2066.13c0,176.95 -144.77,321.72 -321.72,321.72l-3183.48 0c-176.95,0 -321.72,-144.77 -321.72,-321.72l0 -2066.13c0,-176.95 144.77,-321.72 321.72,-321.72zm-25.41 270.56l3234.31 0 0 2168.45 -3234.31 0 0 -2168.45z"/>
    <rect class="fil0" x="351.57" width="855.13" height="423.34" rx="127" ry="127"/>
    <rect class="fil0" x="1359.11" y="186.26" width="304.79" height="150.89" rx="45.27" ry="45.27"/>
    <path class="fil1" d="M859.27 930.66c19.91,-33.98 39.83,-50.96 79.68,-50.96 43.98,0 79.67,30.43 79.67,67.95 0,67.95 -79.67,135.92 -159.35,203.87 -79.67,-67.95 -159.34,-135.92 -159.34,-203.87 0,-37.52 35.69,-67.95 79.67,-67.95 39.84,0 59.75,16.98 79.67,50.96z"/>
   </g>
   <path class="fil1" d="M2500.8 1692.85c27.97,38.58 59.55,91.8 79.88,153.63 26.96,82.03 41.41,156.28 42.98,222.68 -15.25,30.45 -41.02,63.3 -77.34,98.45 -36.32,35.16 -79.84,67.38 -130.87,97.26 -127.1,74.43 -272.3,112.11 -436,112.11 -235.16,0 -419.57,-69.12 -555.13,-204.7 -139.06,-139.07 -209.37,-329.71 -209.37,-574.26 0,-244.55 76.62,-435.9 228.51,-576.21 140.45,-129.74 327.51,-188.7 516.47,-188.7 192.21,0 349.8,46.28 472.68,139.46 122.83,93.15 184,208.24 184,344.56 0,97.42 -37.35,188.86 -120.65,245.28 -19.12,-61.31 -57.4,-109.13 -118.23,-135.48 1.42,-6.14 2.98,-12.31 4.89,-18.48 5.97,-19.19 8.34,-37.63 7.22,-55.53 7.39,-19.32 12.59,-40.55 18.92,-78.36 8.78,-52.39 13.27,-96.41 13.27,-132.79 -48.69,-41.9 -115.29,-77.25 -199.08,-105.38 -84.13,-28.24 -173.15,-42.51 -267.75,-42.51 -191.36,0 -342.79,51.64 -454.8,154.35 -117.83,108.04 -176.86,260.08 -176.86,456.66 0,244.03 96.22,444.69 324.77,548.18 92.2,41.76 197.51,63.15 316.12,63.15 194.13,0 350.67,-51.43 469.29,-154.36l-3.27 -266.49 32.62 -6.55c17.83,-26.94 30.65,-59.41 37.73,-95.97z"/>
   <path class="fil1" d="M2435.71 1615.61c0,61.7 -12.83,111.89 -38.46,150.63l-32.06 0 0 234.77c-102.82,89.21 -238.5,133.8 -406.78,133.8 -102.8,0 -194.15,-18.41 -274.01,-54.73 -87.08,-39.28 -154.65,-96.45 -202.72,-171.48 -52.62,-82.54 -78.79,-183.5 -78.79,-303.69 0,-170.4 51.02,-302.34 153.29,-395.83 96.96,-89.19 228.36,-133.8 394.23,-133.8 82,0 159.18,12.3 232.1,36.86 72.64,24.31 130.35,55.02 172.55,91.34 0,31.53 -3.89,69.68 -11.49,115.1 -7.61,45.39 -13.33,63.22 -24.81,87.24l-151.34 -24.43 -72.28 -1.76 -67.53 13.4c-62.48,28.89 -51,32.98 -63.97,40.48 -12.82,7.39 -19.21,25.64 -45.37,82.85 -4.73,-0.36 -71.02,-21.04 -76.21,-21.04 -63.37,0 -114.8,42.12 -114.8,94.04 0,94.05 114.8,188.08 229.62,282.12 114.82,-94.04 229.62,-188.07 229.62,-282.12 0,-51.92 -51.43,-94.04 -114.8,-94.04 -57.42,0 -86.12,23.49 -114.82,70.53 -105.77,-173.34 478.83,-230.01 478.83,49.76z"/>
  </g>
 </g>
</svg>
