<?xml version="1.0" encoding="UTF-8"?>
<!DOCTYPE svg PUBLIC "-//W3C//DTD SVG 1.1//EN" "http://www.w3.org/Graphics/SVG/1.1/DTD/svg11.dtd">
<!-- Creator: CorelDRAW 2020 (64 Bit) -->
<svg xmlns="http://www.w3.org/2000/svg" xml:space="preserve" width="108.69mm" height="82.3936mm" version="1.1" style="shape-rendering:geometricPrecision; text-rendering:geometricPrecision; image-rendering:optimizeQuality; fill-rule:evenodd; clip-rule:evenodd"
viewBox="0 0 1496.01 1134.07"
 xmlns:xlink="http://www.w3.org/1999/xlink"
 xmlns:xodm="http://www.corel.com/coreldraw/odm/2003">
 <defs>
  <style type="text/css">
   <![CDATA[
    .fil0 {fill:#FFB0B8;fill-rule:nonzero;fill-opacity:0.501961}
   ]]>
  </style>
 </defs>
 <g id="Camada_x0020_1">
  <metadata id="CorelCorpID_0Corel-Layer"/>
  <g id="_2396277979392">
   <path class="fil0" d="M398.59 883.99c-10.83,14.34 -16.65,28.26 -17.49,41.76l7.45 5.63 -41.19 54.56c8.24,38.77 31.96,72.94 71.07,102.47 23.89,18.04 48.35,29.79 73.29,35.36 27.13,6.15 52.86,4.72 77.2,-4.29 26.71,-9.95 50.51,-28.82 71.6,-56.76 29.9,-39.6 41.19,-79.22 33.82,-118.89 -6.89,-37.74 -29.6,-71.16 -68.15,-100.27 -19.06,-14.39 -39.15,-25.07 -60.41,-32.16 -21.15,-7.1 -39.95,-10.08 -56.13,-9.05 -5.53,7.33 -11.32,16.88 -17.52,28.77 -6.2,11.88 -7.99,17.03 -9.54,24.63l39.46 20.87 17.11 12.27 13.34 14.96c9.45,17.68 6.07,16.61 7.77,20.63 1.68,3.97 -0.03,9.33 -3.99,27.22 1.16,0.75 20.2,7.57 21.4,8.48 14.73,11.12 19.29,29.93 10.18,42 -16.5,21.86 -59.68,23.57 -102.87,25.28 -10.19,-42 -20.37,-84 -3.87,-105.85 9.11,-12.07 28.45,-12.83 43.18,-1.71 13.34,10.07 15.89,20.57 14.31,36.54 55,-21.73 -70.93,-137.47 -120.02,-72.45z"/>
   <path class="fil0" d="M1070.84 761.54c-16.56,21.94 -25.47,43.23 -26.76,63.88l11.4 8.6 -63.02 83.47c12.61,59.32 48.89,111.59 108.72,156.76 36.55,27.6 73.97,45.57 112.12,54.09 41.5,9.41 80.87,7.22 118.1,-6.56 40.87,-15.23 77.27,-44.09 109.53,-86.83 45.74,-60.59 63.01,-121.19 51.74,-181.88 -10.53,-57.74 -45.28,-108.87 -104.26,-153.39 -29.15,-22.01 -59.9,-38.35 -92.41,-49.19 -32.36,-10.86 -61.11,-15.43 -85.87,-13.84 -8.46,11.21 -17.32,25.82 -26.81,44.01 -9.48,18.18 -12.23,26.05 -14.6,37.68l60.37 31.93 26.17 18.77 20.41 22.89c14.46,27.04 9.28,25.42 11.88,31.57 2.57,6.07 -0.05,14.27 -6.11,41.63 1.78,1.14 30.9,11.58 32.74,12.97 22.53,17.01 29.51,45.79 15.57,64.25 -25.24,33.44 -91.3,36.05 -157.36,38.67 -15.58,-64.26 -31.16,-128.5 -5.92,-161.94 13.94,-18.46 43.53,-19.63 66.06,-2.62 20.41,15.41 24.31,31.47 21.89,55.9 84.13,-33.24 -108.51,-210.3 -183.6,-110.83z"/>
   <path class="fil0" d="M58.96 476.56c-12.46,16.5 -19.16,32.51 -20.13,48.05l8.57 6.47 -47.4 62.79c9.49,44.62 36.77,83.94 81.78,117.92 27.49,20.76 55.64,34.28 84.34,40.69 31.22,7.08 60.83,5.43 88.84,-4.93 30.74,-11.45 58.13,-33.17 82.39,-65.31 34.41,-45.58 47.4,-91.16 38.92,-136.82 -7.92,-43.43 -34.06,-81.89 -78.42,-115.38 -21.93,-16.56 -45.06,-28.85 -69.52,-37 -24.34,-8.17 -45.97,-11.6 -64.59,-10.41 -6.37,8.43 -13.03,19.42 -20.17,33.11 -7.13,13.67 -9.2,19.6 -10.98,28.34l45.41 24.02 19.69 14.12 15.36 17.22c10.88,20.34 6.98,19.12 8.94,23.74 1.93,4.56 -0.04,10.74 -4.59,31.32 1.34,0.86 23.24,8.71 24.63,9.76 16.95,12.8 22.2,34.44 11.72,48.33 -18.99,25.15 -68.68,27.12 -118.37,29.09 -11.72,-48.34 -23.44,-96.66 -4.45,-121.81 10.48,-13.89 32.74,-14.77 49.69,-1.97 15.36,11.59 18.29,23.67 16.47,42.05 63.29,-25 -81.62,-158.19 -138.11,-83.37z"/>
   <path class="fil0" d="M240.48 43.77c-5.79,7.67 -8.9,15.11 -9.35,22.33l3.98 3.01 -22.03 29.18c4.41,20.74 17.09,39.01 38.01,54.8 12.78,9.65 25.86,15.93 39.19,18.91 14.51,3.29 28.27,2.52 41.29,-2.29 14.29,-5.32 27.01,-15.42 38.29,-30.35 15.99,-21.18 22.03,-42.37 18.09,-63.58 -3.68,-20.18 -15.83,-38.06 -36.45,-53.62 -10.19,-7.69 -20.94,-13.41 -32.31,-17.2 -11.31,-3.79 -21.36,-5.39 -30.02,-4.84 -2.96,3.92 -6.05,9.03 -9.37,15.39 -3.31,6.35 -4.28,9.11 -5.1,13.17l21.1 11.16 9.15 6.56 7.14 8c5.05,9.45 3.24,8.88 4.15,11.03 0.9,2.12 -0.02,4.99 -2.13,14.56 0.62,0.4 10.8,4.05 11.45,4.53 7.88,5.95 10.32,16.01 5.45,22.46 -8.82,11.69 -31.92,12.61 -55.01,13.52 -5.45,-22.46 -10.89,-44.92 -2.07,-56.61 4.87,-6.46 15.22,-6.86 23.09,-0.92 7.14,5.39 8.5,11 7.65,19.54 29.41,-11.62 -37.93,-73.52 -64.18,-38.74z"/>
   <path class="fil0" d="M894.55 52.31c-3.98,5.27 -6.12,10.39 -6.43,15.36l2.74 2.07 -15.15 20.07c3.03,14.26 11.75,26.83 26.14,37.69 8.79,6.64 17.79,10.96 26.96,13.01 9.98,2.26 19.44,1.74 28.4,-1.58 9.83,-3.66 18.58,-10.6 26.34,-20.88 11,-14.57 15.15,-29.14 12.44,-43.73 -2.53,-13.88 -10.89,-26.18 -25.07,-36.88 -7.01,-5.29 -14.4,-9.22 -22.22,-11.83 -7.78,-2.61 -14.7,-3.71 -20.65,-3.33 -2.03,2.69 -4.16,6.21 -6.45,10.58 -2.28,4.37 -2.94,6.26 -3.51,9.06l14.52 7.68 6.29 4.51 4.91 5.5c3.48,6.5 2.23,6.11 2.86,7.59 0.62,1.46 -0.01,3.43 -1.47,10.01 0.43,0.27 7.43,2.78 7.87,3.12 5.42,4.09 7.1,11.01 3.75,15.45 -6.07,8.04 -21.95,8.67 -37.84,9.3 -3.75,-15.45 -7.49,-30.9 -1.42,-38.94 3.35,-4.44 10.47,-4.72 15.89,-0.63 4.91,3.71 5.85,7.57 5.26,13.44 20.23,-7.99 -26.09,-50.57 -44.15,-26.65z"/>
   <path class="fil0" d="M588.3 71.99c-2.19,2.89 -3.36,5.7 -3.53,8.43l1.5 1.14 -8.32 11.02c1.66,7.83 6.45,14.73 14.35,20.69 4.82,3.64 9.76,6.01 14.79,7.14 5.48,1.24 10.67,0.95 15.58,-0.87 5.39,-2.01 10.2,-5.82 14.45,-11.46 6.04,-7.99 8.31,-15.99 6.83,-24 -1.39,-7.62 -5.97,-14.37 -13.76,-20.24 -3.85,-2.9 -7.9,-5.06 -12.19,-6.49 -4.27,-1.43 -8.07,-2.04 -11.33,-1.83 -1.12,1.48 -2.29,3.41 -3.54,5.81 -1.25,2.4 -1.61,3.44 -1.93,4.97l7.97 4.21 3.45 2.48 2.69 3.02c1.91,3.57 1.22,3.35 1.57,4.17 0.34,0.8 -0.01,1.88 -0.81,5.49 0.23,0.15 4.08,1.53 4.32,1.71 2.97,2.24 3.89,6.04 2.05,8.48 -3.33,4.41 -12.05,4.76 -20.77,5.1 -2.06,-8.48 -4.11,-16.96 -0.78,-21.37 1.84,-2.44 5.75,-2.59 8.72,-0.35 2.69,2.03 3.21,4.15 2.89,7.38 11.1,-4.39 -14.32,-27.75 -24.23,-14.63z"/>
   <path class="fil0" d="M476.03 536.26c-3.75,4.97 -5.77,9.79 -6.06,14.46l2.58 1.95 -14.27 18.9c2.86,13.43 11.07,25.27 24.62,35.49 8.28,6.25 16.75,10.32 25.39,12.25 9.4,2.13 18.31,1.63 26.74,-1.48 9.25,-3.45 17.5,-9.98 24.8,-19.66 10.36,-13.72 14.27,-27.44 11.71,-41.18 -2.38,-13.07 -10.25,-24.65 -23.61,-34.73 -6.6,-4.98 -13.56,-8.68 -20.92,-11.14 -7.33,-2.46 -13.84,-3.49 -19.44,-3.13 -1.92,2.54 -3.92,5.85 -6.07,9.96 -2.15,4.12 -2.77,5.9 -3.3,8.53l13.67 7.23 5.93 4.25 4.62 5.18c3.27,6.12 2.1,5.75 2.69,7.15 0.58,1.37 -0.01,3.23 -1.38,9.43 0.4,0.26 6.99,2.62 7.41,2.94 5.1,3.85 6.68,10.37 3.53,14.55 -5.72,7.57 -20.67,8.16 -35.63,8.76 -3.53,-14.55 -7.06,-29.1 -1.34,-36.67 3.16,-4.18 9.86,-4.45 14.96,-0.59 4.62,3.49 5.51,7.13 4.96,12.66 19.05,-7.53 -24.57,-47.62 -41.57,-25.09z"/>
   <path class="fil0" d="M1012.34 544.33c-4.82,6.38 -7.41,12.57 -7.78,18.58l3.32 2.5 -18.33 24.29c3.67,17.26 14.22,32.46 31.63,45.6 10.63,8.03 21.52,13.26 32.62,15.74 12.07,2.74 23.53,2.1 34.36,-1.91 11.89,-4.43 22.48,-12.83 31.87,-25.26 13.31,-17.63 18.33,-35.26 15.05,-52.91 -3.07,-16.8 -13.17,-31.67 -30.33,-44.63 -8.48,-6.4 -17.43,-11.16 -26.89,-14.31 -9.41,-3.16 -17.78,-4.49 -24.98,-4.03 -2.46,3.26 -5.04,7.51 -7.8,12.8 -2.76,5.29 -3.56,7.58 -4.25,10.96l17.56 9.29 7.61 5.46 5.94 6.66c4.21,7.87 2.7,7.39 3.46,9.18 0.75,1.76 -0.02,4.15 -1.78,12.11 0.52,0.33 8.99,3.37 9.53,3.77 6.55,4.95 8.59,13.32 4.53,18.69 -7.34,9.73 -26.56,10.49 -45.78,11.25 -4.53,-18.69 -9.06,-37.38 -1.72,-47.11 4.05,-5.37 12.66,-5.71 19.22,-0.76 5.94,4.48 7.07,9.15 6.37,16.26 24.48,-9.67 -31.57,-61.18 -53.41,-32.24z"/>
   <path class="fil0" d="M1229 308.36c-3.72,4.93 -5.72,9.71 -6.01,14.35l2.56 1.93 -14.16 18.76c2.83,13.33 10.99,25.08 24.43,35.22 8.21,6.2 16.62,10.24 25.19,12.15 9.33,2.11 18.17,1.62 26.54,-1.47 9.18,-3.42 17.36,-9.91 24.61,-19.51 10.28,-13.61 14.16,-27.23 11.63,-40.87 -2.37,-12.97 -10.17,-24.46 -23.43,-34.47 -6.55,-4.95 -13.46,-8.62 -20.77,-11.05 -7.27,-2.44 -13.73,-3.47 -19.3,-3.11 -1.9,2.52 -3.89,5.8 -6.02,9.89 -2.13,4.09 -2.75,5.86 -3.28,8.47l13.56 7.18 5.88 4.22 4.59 5.14c3.25,6.08 2.09,5.71 2.67,7.09 0.58,1.36 -0.01,3.21 -1.37,9.36 0.4,0.26 6.94,2.6 7.36,2.92 5.06,3.82 6.63,10.29 3.5,14.44 -5.67,7.51 -20.52,8.1 -35.36,8.69 -3.5,-14.44 -7,-28.88 -1.33,-36.39 3.13,-4.15 9.78,-4.41 14.84,-0.59 4.59,3.46 5.46,7.07 4.92,12.56 18.9,-7.47 -24.38,-47.26 -41.26,-24.9z"/>
   <path class="fil0" d="M720.58 285.81c-9.41,12.46 -14.47,24.56 -15.2,36.29l6.48 4.89 -35.8 47.43c7.17,33.7 27.78,63.4 61.77,89.06 20.77,15.68 42.03,25.89 63.7,30.73 23.58,5.35 45.95,4.1 67.1,-3.72 23.22,-8.65 43.9,-25.05 62.23,-49.33 25.99,-34.42 35.8,-68.86 29.4,-103.34 -5.98,-32.8 -25.73,-61.85 -59.23,-87.15 -16.56,-12.5 -34.03,-21.79 -52.51,-27.95 -18.38,-6.17 -34.72,-8.76 -48.79,-7.86 -4.81,6.37 -9.84,14.67 -15.23,25.01 -5.39,10.33 -6.95,14.8 -8.29,21.41l34.3 18.14 14.87 10.67 11.6 13.01c8.21,15.37 5.27,14.44 6.75,17.93 1.46,3.45 -0.03,8.11 -3.47,23.65 1.01,0.65 17.55,6.58 18.6,7.37 12.8,9.66 16.77,26.02 8.85,36.5 -14.34,19 -51.87,20.48 -89.41,21.97 -8.85,-36.51 -17.7,-73.01 -3.36,-92.01 7.92,-10.49 24.73,-11.16 37.53,-1.49 11.6,8.76 13.81,17.88 12.44,31.76 47.8,-18.89 -61.65,-119.49 -104.31,-62.97z"/>
   <path class="fil0" d="M1216.69 89.76c-2.61,3.46 -4.01,6.81 -4.22,10.07l1.8 1.36 -9.93 13.15c1.99,9.35 7.7,17.58 17.13,24.7 5.76,4.35 11.66,7.18 17.67,8.52 6.54,1.48 12.74,1.14 18.61,-1.03 6.44,-2.4 12.17,-6.95 17.26,-13.68 7.21,-9.55 9.93,-19.1 8.15,-28.66 -1.66,-9.1 -7.14,-17.15 -16.43,-24.17 -4.59,-3.47 -9.44,-6.04 -14.56,-7.75 -5.1,-1.71 -9.63,-2.43 -13.53,-2.18 -1.33,1.77 -2.73,4.07 -4.22,6.93 -1.49,2.87 -1.93,4.11 -2.3,5.94l9.51 5.03 4.12 2.96 3.22 3.61c2.28,4.26 1.46,4 1.87,4.97 0.4,0.96 -0.01,2.25 -0.96,6.56 0.28,0.18 4.87,1.82 5.16,2.04 3.55,2.68 4.65,7.21 2.45,10.12 -3.98,5.27 -14.38,5.68 -24.8,6.09 -2.45,-10.12 -4.91,-20.25 -0.93,-25.52 2.2,-2.91 6.86,-3.09 10.41,-0.41 3.22,2.43 3.83,4.96 3.45,8.81 13.26,-5.24 -17.1,-33.14 -28.93,-17.46z"/>
  </g>
 </g>
</svg>
